<svg xmlns:dc="http://purl.org/dc/elements/1.1/" xmlns:cc="http://creativecommons.org/ns#" xmlns:rdf="http://www.w3.org/1999/02/22-rdf-syntax-ns#" xmlns:svg="http://www.w3.org/2000/svg" xmlns="http://www.w3.org/2000/svg" xmlns:sodipodi="http://sodipodi.sourceforge.net/DTD/sodipodi-0.dtd" xmlns:inkscape="http://www.inkscape.org/namespaces/inkscape" version="1.1" x="0px" y="0px" viewBox="0 0 100 125"><g transform="translate(0,-952.36218)"><path d="m 72.99959,1002.3622 c -0.0282,-0.715 -0.3223,-1.5414 -0.8125,-2.0625 l -18,-19.00005 c -1.05102,-1.24529 -3.0729,-1.22032 -4.2546,-0.0982 -1.1816,1.12211 -1.2785,3.10929 -0.089,4.2232 l 13.18756,13.9375 -33.03126,0 c -1.6569,0 -3,1.34325 -3,3.00005 0,1.6569 1.3431,3 3,3 l 33.03126,0 -13.18756,13.9375 c -1.1893,1.1139 -1.092,3.1095 0.09,4.2316 1.1817,1.1221 3.23229,1.127 4.25422,-0.1066 l 18,-19 c 0.54752,-0.5818 0.8045,-1.2605 0.8125,-2.0625 z" style="text-indent:0;text-transform:none;direction:ltr;block-progression:tb;baseline-shift:baseline;color:#ffffff;enable-background:accumulate;" fill="#ffffff" fill-opacity="1" stroke="none" marker="none" visibility="visible" display="inline" overflow="visible"/></g></svg>
