<svg xmlns:dc="http://purl.org/dc/elements/1.1/" xmlns:cc="http://creativecommons.org/ns#" xmlns:rdf="http://www.w3.org/1999/02/22-rdf-syntax-ns#" xmlns:svg="http://www.w3.org/2000/svg" xmlns="http://www.w3.org/2000/svg" xmlns:sodipodi="http://sodipodi.sourceforge.net/DTD/sodipodi-0.dtd" xmlns:inkscape="http://www.inkscape.org/namespaces/inkscape" version="1.1" x="0px" y="0px" viewBox="0 0 100 125"><g transform="translate(0,-952.36218)"><path d="m 27.000385,1002.3622 c 0.028,0.715 0.3223,1.5414 0.8125,2.0625 l 18,19 c 1.0511,1.2453 3.0729,1.2203 4.2546,0.098 1.1816,-1.1221 1.2785,-3.1093 0.089,-4.2232 l -13.1875,-13.9375 33.03123,0 c 1.6569,0 3,-1.3432 3,-3 0,-1.6569 -1.3431,-3.00004 -3,-3.00004 l -33.03123,0 13.1875,-13.9375 c 1.1893,-1.1139 1.092,-3.1095 -0.09,-4.2316 -1.1817,-1.1221 -3.2323,-1.127 -4.2542,0.1066 l -18,19.00004 c -0.5475,0.5818 -0.8045,1.2605 -0.8125,2.0625 z" style="text-indent:0;text-transform:none;direction:ltr;block-progression:tb;baseline-shift:baseline;color:#ffffff;enable-background:accumulate;" fill="#ffffff" fill-opacity="1" stroke="none" marker="none" visibility="visible" display="inline" overflow="visible"/></g></svg>
